<svg width="18" height="18" viewBox="0 0 18 18" fill="none" xmlns="http://www.w3.org/2000/svg">
<path fill-rule="evenodd" clip-rule="evenodd" d="M8.99918 16.126C12.9343 16.126 16.1242 12.936 16.1242 9.00101C16.1242 5.06595 12.9343 1.87598 8.99918 1.87598C5.06418 1.87598 1.87421 5.06595 1.87421 9.00101C1.87421 12.936 5.06418 16.126 8.99918 16.126ZM6.344 7.30801C6.344 6.36149 7.11131 5.59419 8.05785 5.59419H8.59395V4.87528C8.59395 4.65091 8.77583 4.46903 9.00015 4.46903C9.22455 4.46903 9.40643 4.65091 9.40643 4.87528V5.59419H9.75023C10.8031 5.59419 11.6565 6.44765 11.6565 7.50048C11.6565 7.72481 11.4746 7.90668 11.2502 7.90668C11.0259 7.90668 10.844 7.72481 10.844 7.50048C10.844 6.89639 10.3544 6.4067 9.75023 6.4067H9.40643V8.70761L10.4846 9.06701C11.1845 9.30026 11.6565 9.95523 11.6565 10.6929C11.6565 11.6394 10.8892 12.4067 9.94268 12.4067H9.40643V13.1253C9.40643 13.3497 9.22455 13.5315 9.00015 13.5315C8.77583 13.5315 8.59395 13.3497 8.59395 13.1253V12.4067H8.25023C7.19746 12.4067 6.344 11.5533 6.344 10.5005C6.344 10.2761 6.52589 10.0942 6.75026 10.0942C6.97462 10.0942 7.1565 10.2761 7.1565 10.5005C7.1565 11.1045 7.64618 11.5942 8.25023 11.5942H8.59395V9.29321L7.51583 8.93388C6.81604 8.70063 6.344 8.04566 6.344 7.30801ZM8.59395 8.43678V6.4067H8.05785C7.56 6.4067 7.1565 6.81023 7.1565 7.30801C7.1565 7.69593 7.40475 8.04041 7.77278 8.16303L8.59395 8.43678ZM9.40643 9.56403V11.5942H9.94268C10.4405 11.5942 10.844 11.1906 10.844 10.6929C10.844 10.305 10.5958 9.96048 10.2277 9.83786L9.40643 9.56403Z" fill="white"/>
</svg>
