<svg width="40" height="40" viewBox="0 0 40 40" fill="none" xmlns="http://www.w3.org/2000/svg">
<path d="M20 40C31.0457 40 40 31.0457 40 20C40 8.95431 31.0457 0 20 0C8.95431 0 0 8.95431 0 20C0 31.0457 8.95431 40 20 40Z" fill="#5000B9"/>
<path fill-rule="evenodd" clip-rule="evenodd" d="M20.4583 9.74209C20.8702 10.0119 21.3098 10.6558 21.809 11.7211C22.2722 12.7096 23.7829 17.1354 24.827 20.5633C25.1346 21.5738 25.4842 22.5872 25.6036 22.8154L25.8206 23.2303L25.8258 21.0729C25.8327 18.2413 26.0514 17.2674 26.8813 16.3742C27.4395 15.7733 28.0212 15.5548 28.9259 15.6058C29.368 15.6309 29.7621 15.6835 29.8015 15.723C29.8769 15.7984 30.567 18.3513 30.5244 18.3969C30.5109 18.4114 30.3002 18.3683 30.0563 18.3009C29.3929 18.1176 28.8203 18.4354 28.4435 19.1962C28.1594 19.7696 28.1497 19.8787 28.0704 23.4041C28.0056 26.2874 27.9487 27.1527 27.7902 27.6598C27.3002 29.2281 26.2003 29.2651 25.1927 27.7472C24.2291 26.2954 23.3097 23.7881 21.9715 18.9631C21.1343 15.9451 20.894 15.2294 20.7173 15.2294C20.5847 15.2294 20.6087 15.4402 21.2855 20.2077C21.8538 24.2118 22.0486 27.0122 21.8175 27.8582C21.7454 28.1217 21.5713 28.4611 21.4304 28.6122C21.2175 28.8409 21.0923 28.8764 20.6875 28.8232C19.6878 28.6918 18.8013 27.2776 17.479 23.7044C16.1615 20.1446 15.88 19.4305 15.6995 19.1921C15.5379 18.9783 15.526 18.9932 15.5226 19.417C15.5204 19.6665 15.659 20.8667 15.8302 22.0839C16.0413 23.5845 16.1449 24.8505 16.1518 26.0157C16.1607 27.5614 16.1359 27.7837 15.9046 28.2236C15.5087 28.9767 14.9453 29.0782 14.3009 28.5124C13.7671 28.0437 13.3086 27.063 12.4496 24.5515C12.0531 23.3923 11.682 22.3605 11.6251 22.2588C11.43 21.9103 11.4072 22.2825 11.5618 23.2895C11.9352 25.7228 12.1032 27.2876 12.0503 27.838C11.9674 28.7013 11.7212 28.8606 10.4681 28.8606H9.47369V28.3864V27.9123H9.95564C10.7243 27.9123 10.8961 27.7611 10.8961 27.0849C10.8961 26.7648 10.7854 25.7666 10.6501 24.8666C10.5148 23.9666 10.3948 22.7235 10.3834 22.1043C10.3526 20.4281 10.6782 19.8721 11.4929 20.2095C12.1743 20.4917 12.7998 21.6196 13.7426 24.2663C14.085 25.2272 14.4361 26.1073 14.5233 26.2221C14.6636 26.4069 14.682 26.3754 14.6853 25.9446C14.6874 25.6771 14.4932 24.237 14.2537 22.7442C13.8861 20.4525 13.8171 19.7254 13.8093 18.0742C13.7992 15.9149 13.9226 15.4258 14.5158 15.2769C15.6379 14.9953 16.7823 16.8198 18.5376 21.6893C20.0862 25.9855 20.2594 25.5885 19.3191 19.8982C18.9972 17.9497 18.6666 15.9287 18.5847 15.4072C18.5029 14.8856 18.433 13.6055 18.4294 12.5625C18.4237 10.8946 18.4514 10.6089 18.6599 10.1927C19.04 9.43391 19.7258 9.26203 20.4583 9.74209Z" fill="white"/>
</svg>
