<svg width="34" height="34" viewBox="0 0 34 34" fill="none" xmlns="http://www.w3.org/2000/svg">
<path d="M17 34C26.3888 34 34 26.3888 34 17C34 7.61116 26.3888 0 17 0C7.61116 0 0 7.61116 0 17C0 26.3888 7.61116 34 17 34Z" fill="#F14B54"/>
<path fill-rule="evenodd" clip-rule="evenodd" d="M8.05264 17.0001V25.9475H9.72186H11.3911V17.0001V8.05273H9.72186H8.05264V17.0001ZM19.8837 8.06409C18.1166 8.18178 16.6231 8.83541 15.4122 10.0212C14.4653 10.9486 13.8173 12.1044 13.5509 13.3412C13.4391 13.8597 13.4175 14.0668 13.4108 14.6772C13.4041 15.2878 13.4134 15.4288 13.4903 15.8828C13.6836 17.0221 14.1559 18.0453 14.9232 18.9873C15.1493 19.2649 15.6645 19.7649 15.9652 19.9986C16.3769 20.3187 16.8423 20.6047 17.2909 20.8133C19.2817 21.7393 21.6089 21.678 23.52 20.6495C25.4359 19.6183 26.714 17.7937 27.0205 15.6523C27.0637 15.3506 27.0808 14.5007 27.0503 14.1737C26.9287 12.8709 26.4419 11.6659 25.6125 10.6145C25.3876 10.3296 24.7419 9.69744 24.4522 9.47877C23.42 8.69949 22.2843 8.24262 21.0259 8.10042C20.7746 8.07203 20.091 8.05028 19.8837 8.06409Z" fill="white"/>
</svg>
