<svg width="40" height="40" viewBox="0 0 40 40" fill="none" xmlns="http://www.w3.org/2000/svg">
<path d="M20 40C31.0457 40 40 31.0457 40 20C40 8.95431 31.0457 0 20 0C8.95431 0 0 8.95431 0 20C0 31.0457 8.95431 40 20 40Z" fill="#C13584"/>
<path fill-rule="evenodd" clip-rule="evenodd" d="M15.4903 9.51286C14.1645 9.61094 13.3996 9.81009 12.4279 10.3101C11.6406 10.7152 10.7072 11.6486 10.3021 12.4359C9.94008 13.1393 9.74648 13.7259 9.59322 14.5831C9.48853 15.1688 9.47368 15.8427 9.47368 20.0039C9.47368 24.1652 9.48853 24.8391 9.59322 25.4248C9.86363 26.9375 10.3121 27.8554 11.2283 28.7716C12.1444 29.6878 13.0624 30.1363 14.5752 30.4067C15.1607 30.5114 15.8347 30.5263 19.996 30.5263C24.1573 30.5263 24.8312 30.5114 25.4168 30.4067C26.9295 30.1363 27.8475 29.6878 28.7637 28.7716C29.6799 27.8554 30.1283 26.9375 30.3987 25.4248C30.5034 24.8391 30.5183 24.1652 30.5183 20.0039C30.5183 15.8427 30.5034 15.1688 30.3987 14.5831C30.1283 13.0705 29.6799 12.1525 28.7637 11.2363C27.8544 10.3271 26.9261 9.87064 25.452 9.60812C24.9255 9.51435 24.093 9.49209 20.524 9.47668C18.162 9.46647 15.8969 9.48274 15.4903 9.51286ZM24.0167 11.4135C25.8234 11.5194 26.6465 11.8006 27.4229 12.577C28.1994 13.3534 28.4805 14.1766 28.5864 15.9832C28.6697 17.4034 28.6697 22.6045 28.5864 24.0248C28.4805 25.8314 28.1994 26.6545 27.4229 27.431C26.6465 28.2073 25.8234 28.4885 24.0167 28.5944C22.5965 28.6776 17.3955 28.6776 15.9752 28.5944C14.1685 28.4885 13.3455 28.2073 12.5689 27.431C11.7926 26.6545 11.5115 25.8314 11.4056 24.0248C11.3223 22.6045 11.3223 17.4034 11.4056 15.9832C11.5115 14.1766 11.7926 13.3534 12.5689 12.577C13.32 11.8259 14.1961 11.5127 15.8072 11.419C17.1347 11.3418 22.7302 11.3382 24.0167 11.4135ZM25.1002 13.2115C24.779 13.3852 24.6349 13.5353 24.4933 13.8439C24.329 14.2015 24.329 14.5424 24.4933 14.8999C24.647 15.2349 24.8041 15.385 25.153 15.5309C25.4949 15.6736 25.8097 15.6654 26.1642 15.5045C26.5956 15.3086 26.8463 14.9393 26.8779 14.453C26.9086 13.9802 26.769 13.6751 26.3763 13.3573C26.056 13.0981 25.4404 13.0277 25.1002 13.2115ZM19.0157 14.6552C17.286 15.0194 15.923 16.0508 15.1543 17.5776C14.73 18.4203 14.6103 18.9541 14.6103 20.0039C14.6103 20.8045 14.6364 21.0372 14.7754 21.4799C15.3713 23.3776 16.6223 24.6287 18.52 25.2246C18.9627 25.3635 19.1955 25.3896 19.996 25.3896C20.7965 25.3896 21.0293 25.3635 21.4719 25.2246C23.3697 24.6287 24.6206 23.3776 25.2166 21.4799C25.3556 21.0372 25.3816 20.8045 25.3816 20.0039C25.3816 19.2034 25.3556 18.9707 25.2166 18.5281C24.6251 16.6446 23.3768 15.3874 21.5096 14.7949C20.9535 14.6185 19.5608 14.5405 19.0157 14.6552ZM21.1606 16.7017C22.2099 17.0927 22.8926 17.7736 23.3066 18.8424C23.5419 19.4493 23.5417 20.5598 23.3061 21.1656C22.8908 22.2341 22.2235 22.9016 21.1576 23.3146C20.8116 23.4488 20.6016 23.4783 19.996 23.4783C19.3904 23.4783 19.1804 23.4488 18.8343 23.3146C17.7685 22.9016 17.101 22.2341 16.6858 21.1656C16.551 20.8189 16.5217 20.6106 16.5217 20.0039C16.5217 19.2124 16.6452 18.753 17.0232 18.1384C17.5105 17.3459 18.4685 16.7051 19.4327 16.5265C19.8215 16.4545 20.7499 16.5487 21.1606 16.7017Z" fill="white"/>
</svg>
