<svg width="24" height="24" viewBox="0 0 24 24" fill="none" xmlns="http://www.w3.org/2000/svg">
<path fill-rule="evenodd" clip-rule="evenodd" d="M12 21.5005C17.2467 21.5005 21.5 17.2472 21.5 12.0005C21.5 6.75378 17.2467 2.50049 12 2.50049C6.7533 2.50049 2.5 6.75378 2.5 12.0005C2.5 17.2472 6.7533 21.5005 12 21.5005ZM8.45813 9.74405C8.45813 8.48203 9.48119 7.45897 10.7432 7.45897H11.4581V6.50064C11.4581 6.20149 11.7006 5.95898 11.9998 5.95898C12.2989 5.95898 12.5414 6.20149 12.5414 6.50064V7.45897H12.9998C14.4035 7.45897 15.5415 8.59691 15.5415 10.0006C15.5415 10.2998 15.2989 10.5423 14.9998 10.5423C14.7006 10.5423 14.4581 10.2998 14.4581 10.0006C14.4581 9.19522 13.8052 8.5423 12.9998 8.5423H12.5414V11.6102L13.979 12.0894C14.9121 12.4004 15.5415 13.2736 15.5415 14.2572C15.5415 15.5192 14.5184 16.5423 13.2564 16.5423H12.5414V17.5006C12.5414 17.7998 12.2989 18.0423 11.9998 18.0423C11.7006 18.0423 11.4581 17.7998 11.4581 17.5006V16.5423H10.9998C9.59607 16.5423 8.45813 15.4044 8.45813 14.0006C8.45813 13.7015 8.70064 13.459 8.99979 13.459C9.29895 13.459 9.54146 13.7015 9.54146 14.0006C9.54146 14.806 10.1944 15.459 10.9998 15.459H11.4581V12.391L10.0206 11.9119C9.08751 11.6008 8.45813 10.7276 8.45813 9.74405ZM11.4581 11.2491V8.5423H10.7432C10.0795 8.5423 9.54146 9.08034 9.54146 9.74405C9.54146 10.2613 9.87246 10.7206 10.3632 10.8841L11.4581 11.2491ZM12.5414 12.7522V15.459H13.2564C13.9201 15.459 14.4581 14.9209 14.4581 14.2572C14.4581 13.7399 14.1271 13.2807 13.6364 13.1171L12.5414 12.7522Z" fill="#191919"/>
</svg>
