<svg width="18" height="18" viewBox="0 0 18 18" fill="none" xmlns="http://www.w3.org/2000/svg">
<path opacity="0.2" d="M3 9.44355V10.5C3 14.625 4.125 15.75 8.25 15.75H9.75C13.875 15.75 15 14.625 15 10.5V9.44355C13.379 9.2376 11.0585 9 9 9C6.94148 9 4.62097 9.2376 3 9.44355Z" fill="white"/>
<path d="M7.23548 2.03326L1.1156 6.48409C0.8859 6.65115 0.75 6.91802 0.75 7.20204C0.75 7.75059 1.24094 8.17066 1.78405 8.09356C3.33193 7.87374 6.35283 7.50001 9 7.50001C11.6472 7.50001 14.668 7.87374 16.216 8.09356C16.7591 8.17066 17.25 7.75059 17.25 7.20204C17.25 6.91802 17.1141 6.65115 16.8844 6.48409L10.7645 2.03326C9.71257 1.26821 8.28743 1.26821 7.23548 2.03326Z" fill="white"/>
<path fill-rule="evenodd" clip-rule="evenodd" d="M3 10.5V9.44355C4.62097 9.2376 6.94148 9 9 9C11.0585 9 13.379 9.2376 15 9.44355V10.5C15 14.625 13.875 15.75 9.75 15.75H8.25C4.125 15.75 3 14.625 3 10.5ZM9 10.5C10.4707 10.5 12.1002 10.628 13.498 10.7777C13.471 12.6139 13.1745 13.2979 12.8612 13.6111C12.5326 13.9397 11.7961 14.25 9.75 14.25H8.25C6.20392 14.25 5.46736 13.9397 5.13878 13.6111C4.82553 13.2979 4.52896 12.6139 4.50199 10.7777C5.89983 10.628 7.52933 10.5 9 10.5Z" fill="white"/>
</svg>
