<svg width="34" height="34" viewBox="0 0 34 34" fill="none" xmlns="http://www.w3.org/2000/svg">
<path d="M17 34C26.3888 34 34 26.3888 34 17C34 7.61116 26.3888 0 17 0C7.61116 0 0 7.61116 0 17C0 26.3888 7.61116 34 17 34Z" fill="#282828"/>
<path d="M27.7465 11.4992C27.5014 10.5889 26.7838 9.87127 25.8735 9.62621C24.2107 9.17114 17.5592 9.17114 17.5592 9.17114C17.5592 9.17114 10.9076 9.17114 9.24477 9.60876C8.35203 9.85383 7.61686 10.5889 7.3718 11.4992C6.9342 13.162 6.9342 16.6103 6.9342 16.6103C6.9342 16.6103 6.9342 20.0762 7.3718 21.7215C7.61686 22.6317 8.33453 23.3494 9.24477 23.5945C10.9251 24.0495 17.5592 24.0495 17.5592 24.0495C17.5592 24.0495 24.2107 24.0495 25.8735 23.612C26.7838 23.3669 27.5014 22.6493 27.7465 21.7391C28.1841 20.0762 28.1841 16.6279 28.1841 16.6279C28.1841 16.6279 28.2017 13.162 27.7465 11.4992Z" fill="white"/>
<path d="M20.9728 16.6094L15.4416 13.4236V19.7951L20.9728 16.6094Z" fill="#191919"/>
</svg>
