<svg width="40" height="40" viewBox="0 0 40 40" fill="none" xmlns="http://www.w3.org/2000/svg">
<path d="M20 40C31.0457 40 40 31.0457 40 20C40 8.95431 31.0457 0 20 0C8.95431 0 0 8.95431 0 20C0 31.0457 8.95431 40 20 40Z" fill="#1DA1F2"/>
<path d="M15.1509 30.4402C25.0158 30.4402 30.4101 22.4078 30.4101 15.4426C30.4101 15.2144 30.4054 14.9873 30.395 14.7612C31.4422 14.0172 32.3524 13.0887 33.0702 12.0317C32.1093 12.4515 31.0752 12.7341 29.9903 12.8615C31.0977 12.209 31.9478 11.1767 32.3487 9.94595C31.3125 10.5497 30.165 10.9886 28.9432 11.2254C27.9644 10.2008 26.5712 9.56006 25.0283 9.56006C22.0666 9.56006 19.6649 11.9207 19.6649 14.8306C19.6649 15.2442 19.7119 15.6466 19.8039 16.0324C15.3463 15.812 11.3939 13.7146 8.74901 10.5251C8.28841 11.304 8.02282 12.209 8.02282 13.1744C8.02282 15.0033 8.96963 16.6177 10.4095 17.5622C9.52957 17.5355 8.703 17.2981 7.98047 16.903C7.97968 16.9251 7.97968 16.9467 7.97968 16.9702C7.97968 19.5231 9.82834 21.6544 12.2824 22.1375C11.8318 22.2582 11.3576 22.323 10.8682 22.323C10.5232 22.323 10.187 22.2896 9.86024 22.2279C10.5431 24.3223 12.523 25.8464 14.8703 25.8891C13.0347 27.3032 10.7223 28.1454 8.2092 28.1454C7.77683 28.1454 7.34969 28.1213 6.92987 28.0724C9.30344 29.5677 12.1219 30.4402 15.1511 30.4402" fill="white"/>
</svg>
