<svg width="24" height="24" viewBox="0 0 24 24" fill="none" xmlns="http://www.w3.org/2000/svg">
<path opacity="0.2" d="M22 11C22 5.5 20.5 4 15 4V20C20.5 20 22 18.5 22 13V11Z" fill="#191919"/>
<path d="M11 2H13V7H11V2Z" fill="#191919"/>
<path d="M2 13C2 18.5 3.5 20 9 20V4C3.5 4 2 5.5 2 11V13Z" fill="#191919"/>
<path d="M13 9H11V15H13V9Z" fill="#191919"/>
<path d="M11 17H13V22H11V17Z" fill="#191919"/>
<path fill-rule="evenodd" clip-rule="evenodd" d="M22 13C22 17.7636 20.8748 19.5266 17 19.9133C16.401 19.9731 15.7364 20 15 20V4C15.7364 4 16.401 4.02689 17 4.08666C20.8748 4.47336 22 6.23637 22 11V13ZM17 6.09924C18.2634 6.24782 18.8403 6.54372 19.1483 6.85171C19.5864 7.28981 20 8.27189 20 11V13C20 15.7281 19.5864 16.7102 19.1483 17.1483C18.8403 17.4563 18.2634 17.7522 17 17.9008V6.09924Z" fill="#191919"/>
</svg>
