<svg width="34" height="34" viewBox="0 0 34 34" fill="none" xmlns="http://www.w3.org/2000/svg">
<path d="M17 34C26.3888 34 34 26.3888 34 17C34 7.61116 26.3888 0 17 0C7.61116 0 0 7.61116 0 17C0 26.3888 7.61116 34 17 34Z" fill="#009771"/>
<path fill-rule="evenodd" clip-rule="evenodd" d="M15.0207 7.0094C13.5385 7.33322 12.2251 8.8214 11.4653 11.0378L11.204 11.8003L10.0349 12.1591C9.39187 12.3564 8.80376 12.5784 8.72806 12.6525C8.61098 12.7668 7.94631 17.2259 6.96037 24.5112C6.90758 24.9011 6.92054 24.9366 7.13266 24.9827C7.54876 25.0731 19.1543 27.0821 19.1662 27.0658C19.2141 27 19.9907 9.40433 19.9474 9.36416C19.9168 9.33589 19.7617 9.35477 19.6026 9.40621C19.3159 9.49891 19.3112 9.49506 19.0338 8.94501C18.5908 8.06673 17.9001 7.53936 17.193 7.53936C17.0308 7.53936 16.8381 7.45944 16.7307 7.34758C16.3529 6.95423 15.7861 6.8421 15.0207 7.0094ZM16.0148 7.71276C16.0148 7.75878 15.9327 7.8205 15.8326 7.85001C15.5123 7.94437 14.665 8.86151 14.3781 9.42438C14.2253 9.72411 14.0256 10.2254 13.9344 10.5385L13.7682 11.1076L13.0304 11.3097C12.6246 11.4208 12.2374 11.5308 12.1698 11.5541C12.0062 11.6108 12.4477 10.467 12.9017 9.65826C13.5789 8.452 14.6727 7.62907 15.5987 7.62907C15.8275 7.62907 16.0148 7.66675 16.0148 7.71276ZM17.9239 8.54853C18.0909 8.70892 18.3155 9.02175 18.4233 9.24373L18.6191 9.64743L18.3456 9.75471C18.1951 9.81368 17.9635 9.88722 17.8309 9.91809C17.5964 9.97267 17.5879 9.95782 17.5244 9.38214C17.4884 9.05646 17.4331 8.67008 17.4015 8.5235C17.3236 8.16172 17.5316 8.17168 17.9239 8.54853ZM16.68 8.74524C16.7396 8.96439 16.7882 9.3851 16.7882 9.68009V10.2166L15.8305 10.4926C14.6758 10.8254 14.6292 10.8285 14.7124 10.5669C14.8445 10.1516 15.2383 9.41489 15.4953 9.10218C15.7376 8.80741 16.356 8.34669 16.5091 8.34669C16.5436 8.34669 16.6205 8.52602 16.68 8.74524ZM20.2686 9.55C20.2686 9.69128 20.0929 13.5453 19.8782 18.1144C19.6634 22.6836 19.5002 26.5654 19.5156 26.7408L19.5436 27.0596L22.7283 26.4202C24.4798 26.0686 25.9283 25.7383 25.947 25.6862C25.9788 25.5979 23.689 11.0199 23.6096 10.805C23.5887 10.7485 23.1675 10.6803 22.6218 10.645L21.6705 10.5833L20.9696 9.93822C20.2957 9.3179 20.2686 9.30296 20.2686 9.55ZM16.3726 13.9112C16.6277 13.9621 16.8868 14.0328 16.9483 14.0682C17.1087 14.1608 16.2759 16.3865 16.0965 16.3452C16.0249 16.3287 15.7068 16.2535 15.3896 16.1779C14.7037 16.0149 13.9514 16.0724 13.5992 16.3147C13.4654 16.4067 13.3165 16.6267 13.2681 16.8037C13.1541 17.2209 13.3162 17.4553 14.1065 18.0157C15.1547 18.759 15.5238 19.1196 15.8333 19.7029C16.0946 20.1956 16.1347 20.3656 16.1315 20.9697C16.1249 22.2063 15.5593 23.202 14.5709 23.7173C14.1246 23.9499 13.9193 23.9967 13.2079 24.0283C11.9961 24.082 11.0081 23.7846 10.1355 23.1034L9.84675 22.8778L10.127 22.0114C10.2812 21.535 10.4074 21.1295 10.4074 21.1105C10.4074 21.0915 10.61 21.2052 10.8575 21.3633C11.392 21.7044 12.1382 21.9816 12.5224 21.9816C13.1208 21.9816 13.5769 21.2955 13.3061 20.8025C13.2422 20.6863 12.7653 20.2077 12.2461 19.739C11.1022 18.7063 10.9297 18.3527 11.0138 17.2134C11.134 15.587 12.2844 14.3572 14.0593 13.9581C14.7326 13.8067 15.7458 13.7861 16.3726 13.9112Z" fill="white"/>
</svg>
