<svg width="18" height="18" viewBox="0 0 18 18" fill="none" xmlns="http://www.w3.org/2000/svg">
<path opacity="0.2" d="M16.5 8.25C16.5 4.125 15.375 3 11.25 3V15C15.375 15 16.5 13.875 16.5 9.75V8.25Z" fill="white"/>
<path d="M8.25 1.5H9.75V5.25H8.25V1.5Z" fill="white"/>
<path d="M1.5 9.75C1.5 13.875 2.625 15 6.75 15V3C2.625 3 1.5 4.125 1.5 8.25V9.75Z" fill="white"/>
<path d="M9.75 6.75H8.25V11.25H9.75V6.75Z" fill="white"/>
<path d="M8.25 12.75H9.75V16.5H8.25V12.75Z" fill="white"/>
<path fill-rule="evenodd" clip-rule="evenodd" d="M16.5 9.75C16.5 13.3227 15.6561 14.6449 12.75 14.935C12.3008 14.9798 11.8023 15 11.25 15V3C11.8023 3 12.3008 3.02017 12.75 3.06499C15.6561 3.35502 16.5 4.67728 16.5 8.25V9.75ZM12.75 4.57443C13.6976 4.68586 14.1302 4.90779 14.3612 5.13878C14.6898 5.46736 15 6.20392 15 8.25V9.75C15 11.7961 14.6898 12.5326 14.3612 12.8612C14.1302 13.0922 13.6976 13.3142 12.75 13.4256V4.57443Z" fill="white"/>
</svg>
