<svg width="34" height="34" viewBox="0 0 34 34" fill="none" xmlns="http://www.w3.org/2000/svg">
<path d="M17 34C26.3888 34 34 26.3888 34 17C34 7.61116 26.3888 0 17 0C7.61116 0 0 7.61116 0 17C0 26.3888 7.61116 34 17 34Z" fill="#9047FF"/>
<path fill-rule="evenodd" clip-rule="evenodd" d="M25.0153 8.05276H11.0597C10.907 8.05161 10.7564 8.08884 10.6219 8.16101C10.4873 8.23318 10.3731 8.33799 10.2895 8.46583L8.23904 11.3073C8.11688 11.5099 8.05242 11.7419 8.05264 11.9784V21.2881C8.05323 21.5351 8.15165 21.7717 8.32633 21.9463C8.501 22.1209 8.73773 22.219 8.98469 22.2195H11.4079C11.5068 22.2195 11.6016 22.2587 11.6715 22.3286C11.7415 22.3985 11.7807 22.4933 11.7807 22.5922V25.2019C11.7807 25.3996 11.8593 25.5893 11.9991 25.7292C12.1389 25.8689 12.3286 25.9475 12.5263 25.9475H14.0973C14.2282 25.9475 14.3568 25.913 14.4701 25.8476C14.5835 25.7821 14.6776 25.688 14.743 25.5747L16.5676 22.4088C16.6002 22.3522 16.6473 22.3051 16.704 22.2723C16.7607 22.2397 16.825 22.2224 16.8904 22.2224H21.7235C21.8948 22.2229 22.0647 22.1893 22.223 22.1236C22.3813 22.058 22.525 21.9616 22.6458 21.8399L25.5642 18.9215C25.809 18.6758 25.9468 18.3432 25.9474 17.9963V8.9855C25.9474 8.73826 25.8492 8.50113 25.6745 8.32622C25.4997 8.15132 25.2626 8.05296 25.0153 8.05276ZM23.7105 17.4371C23.7105 17.6348 23.6319 17.8244 23.492 17.9642L21.6922 19.7648C21.5523 19.9047 21.3628 19.9832 21.165 19.9833H16.0755C16.0156 19.9834 15.9567 19.9978 15.9036 20.0255C15.8505 20.0531 15.8048 20.0931 15.7705 20.1421L14.6886 21.69C14.6441 21.7551 14.5799 21.8042 14.5054 21.83C14.4309 21.8557 14.3501 21.8569 14.2748 21.8333C14.1997 21.8097 14.1341 21.7624 14.0877 21.6986C14.0414 21.6348 14.0168 21.5579 14.0176 21.4791V20.3554C14.0176 20.2565 13.9783 20.1617 13.9083 20.0918C13.8385 20.0219 13.7436 19.9826 13.6447 19.9826H12.1535C12.0546 19.9826 11.9598 19.9433 11.8899 19.8734C11.82 19.8035 11.7807 19.7087 11.7807 19.6098V10.6624C11.7807 10.5635 11.82 10.4687 11.8899 10.3988C11.9598 10.3289 12.0546 10.2896 12.1535 10.2896H23.3377C23.4366 10.2896 23.5314 10.3289 23.6014 10.3988C23.6713 10.4687 23.7105 10.5635 23.7105 10.6624V17.4371ZM16.254 12.7133C16.1057 12.7133 15.9635 12.7723 15.8586 12.8772C15.7537 12.982 15.6948 13.1243 15.6948 13.2725V16.2551C15.6948 16.4033 15.7537 16.5456 15.8586 16.6504C15.9635 16.7553 16.1057 16.8143 16.254 16.8143C16.4023 16.8143 16.5446 16.7553 16.6495 16.6504C16.7543 16.5456 16.8132 16.4033 16.8132 16.2551V13.2718C16.813 13.1237 16.754 12.9816 16.6492 12.8769C16.5443 12.7722 16.4022 12.7133 16.254 12.7133ZM19.5874 12.8772C19.6923 12.7723 19.8345 12.7133 19.9828 12.7133C20.131 12.7133 20.2731 12.7722 20.378 12.8769C20.4829 12.9816 20.5418 13.1237 20.542 13.2718V16.2551C20.542 16.4033 20.4831 16.5456 20.3783 16.6504C20.2734 16.7553 20.1311 16.8143 19.9828 16.8143C19.8345 16.8143 19.6923 16.7553 19.5874 16.6504C19.4825 16.5456 19.4236 16.4033 19.4236 16.2551V13.2725C19.4236 13.1243 19.4825 12.982 19.5874 12.8772Z" fill="white"/>
</svg>
