<svg width="40" height="40" viewBox="0 0 40 40" fill="none" xmlns="http://www.w3.org/2000/svg">
<path d="M20 40C31.0457 40 40 31.0457 40 20C40 8.95431 31.0457 0 20 0C8.95431 0 0 8.95431 0 20C0 31.0457 8.95431 40 20 40Z" fill="#1ED760"/>
<path d="M19.9999 9.47363C14.1865 9.47363 9.47369 14.1865 9.47369 20.0001C9.47369 25.8137 14.1865 30.5263 19.9999 30.5263C25.8139 30.5263 30.5263 25.8137 30.5263 20.0001C30.5263 14.1869 25.8139 9.47414 19.9998 9.47414L19.9999 9.47363ZM24.8272 24.6557C24.6386 24.9649 24.2339 25.063 23.9247 24.8731C21.4533 23.3635 18.342 23.0216 14.6779 23.8588C14.3249 23.9392 13.9729 23.7179 13.8924 23.3648C13.8116 23.0115 14.032 22.6595 14.3859 22.5791C18.3957 21.663 21.8352 22.0574 24.6098 23.7532C24.919 23.943 25.0171 24.3465 24.8272 24.6557ZM26.1156 21.7895C25.878 22.1756 25.3727 22.2975 24.9869 22.0599C22.1574 20.3208 17.8443 19.8171 14.4977 20.833C14.0637 20.9642 13.6053 20.7195 13.4735 20.2863C13.3427 19.8522 13.5875 19.3947 14.0207 19.2627C17.8436 18.1027 22.5961 18.6646 25.8454 20.6613C26.2313 20.8989 26.3532 21.4041 26.1156 21.7895ZM26.2262 18.8049C22.8337 16.7897 17.2363 16.6045 13.9973 17.5875C13.4772 17.7453 12.9271 17.4517 12.7695 16.9315C12.6118 16.4111 12.9053 15.8614 13.4257 15.7033C17.144 14.5746 23.3252 14.7927 27.2311 17.1114C27.6999 17.3891 27.8533 17.9933 27.5755 18.4606C27.299 18.9284 26.6931 19.0827 26.2267 18.8049H26.2262Z" fill="white"/>
</svg>
