<svg width="18" height="18" viewBox="0 0 18 18" fill="none" xmlns="http://www.w3.org/2000/svg">
<path opacity="0.2" d="M4.58333 2.25C2.75 2.25 2.25 2.75 2.25 4.58333V13.4167C2.25 15.25 2.75 15.75 4.58333 15.75H5.91667C7.74997 15.75 8.25 15.25 8.25 13.4167V4.58333C8.25 2.75 7.74997 2.25 5.91667 2.25H4.58333Z" fill="white"/>
<path fill-rule="evenodd" clip-rule="evenodd" d="M4.58333 2.25C2.75 2.25 2.25 2.75 2.25 4.58333V13.4167C2.25 15.25 2.75 15.75 4.58333 15.75H5.91667C7.74997 15.75 8.25 15.25 8.25 13.4167V4.58333C8.25 2.75 7.74997 2.25 5.91667 2.25H4.58333ZM3.75 4.58333C3.75 4.18271 3.77864 3.94673 3.81143 3.81143C3.94673 3.77864 4.18271 3.75 4.58333 3.75H5.91667C6.31729 3.75 6.55327 3.77864 6.68858 3.81143C6.72136 3.94673 6.75 4.18271 6.75 4.58333V13.4167C6.75 13.8173 6.72136 14.0533 6.68858 14.1886C6.55327 14.2214 6.31729 14.25 5.91667 14.25H4.58333C4.18271 14.25 3.94673 14.2214 3.81143 14.1886C3.77864 14.0533 3.75 13.8173 3.75 13.4167V4.58333Z" fill="white"/>
<path d="M9.75 5.91667C9.75 7.74997 10.25 8.25 12.0833 8.25H13.4167C15.25 8.25 15.75 7.74997 15.75 5.91667V4.58333C15.75 2.75 15.25 2.25 13.4167 2.25H12.0833C10.25 2.25 9.75 2.75 9.75 4.58333V5.91667Z" fill="white"/>
<path d="M9.75 13.4167C9.75 15.25 10.25 15.75 12.0833 15.75H13.4167C15.25 15.75 15.75 15.25 15.75 13.4167V12.0833C15.75 10.25 15.25 9.75 13.4167 9.75H12.0833C10.25 9.75 9.75 10.25 9.75 12.0833V13.4167Z" fill="white"/>
</svg>
