<svg width="28" height="28" viewBox="0 0 28 28" fill="none" xmlns="http://www.w3.org/2000/svg">
<path d="M14 28C21.732 28 28 21.732 28 14C28 6.26801 21.732 0 14 0C6.26801 0 0 6.26801 0 14C0 21.732 6.26801 28 14 28Z" fill="#009771"/>
<path fill-rule="evenodd" clip-rule="evenodd" d="M12.37 5.77228C11.1494 6.03895 10.0677 7.26451 9.44206 9.08975L9.22682 9.71769L8.26407 10.0132C7.7345 10.1757 7.25017 10.3585 7.18783 10.4195C7.09141 10.5137 6.54404 14.1859 5.73209 20.1856C5.68862 20.5066 5.69929 20.5359 5.87397 20.5738C6.21665 20.6483 15.7742 22.3027 15.784 22.2893C15.8234 22.2351 16.4629 7.74457 16.4273 7.71149C16.4021 7.68821 16.2744 7.70375 16.1433 7.74612C15.9073 7.82246 15.9034 7.81929 15.6749 7.36631C15.3101 6.64302 14.7413 6.20871 14.159 6.20871C14.0254 6.20871 13.8667 6.14289 13.7782 6.05077C13.4671 5.72684 13.0003 5.6345 12.37 5.77228ZM13.1887 6.35151C13.1887 6.38941 13.1211 6.44024 13.0387 6.46454C12.7749 6.54225 12.0771 7.29754 11.8408 7.76108C11.715 8.00792 11.5505 8.42077 11.4754 8.67859L11.3385 9.1473L10.7309 9.31368C10.3968 9.40519 10.0779 9.49575 10.0222 9.51498C9.88748 9.56163 10.251 8.61972 10.625 7.95369C11.1826 6.9603 12.0834 6.28259 12.846 6.28259C13.0345 6.28259 13.1887 6.31362 13.1887 6.35151ZM14.7609 7.03979C14.8984 7.17188 15.0834 7.4295 15.1721 7.61231L15.3334 7.94477L15.1082 8.03312C14.9842 8.08168 14.7935 8.14225 14.6843 8.16767C14.4912 8.21262 14.4842 8.20038 14.4319 7.7263C14.4023 7.45809 14.3567 7.13989 14.3307 7.01918C14.2665 6.72125 14.4378 6.72945 14.7609 7.03979ZM13.7365 7.20179C13.7856 7.38227 13.8256 7.72873 13.8256 7.97167V8.41348L13.0369 8.64079C12.086 8.9149 12.0476 8.91741 12.1161 8.70195C12.2249 8.35998 12.5492 7.75327 12.7609 7.49574C12.9604 7.25299 13.4696 6.87358 13.5958 6.87358C13.6242 6.87358 13.6875 7.02125 13.7365 7.20179ZM16.6918 7.86453C16.6918 7.98088 16.5471 11.1548 16.3703 14.9176C16.1934 18.6804 16.059 21.8772 16.0717 22.0216L16.0947 22.2842L18.7174 21.7576C20.1599 21.4681 21.3527 21.1961 21.3681 21.1532C21.3943 21.0805 19.5086 9.07502 19.4432 8.89803C19.426 8.85153 19.0791 8.79538 18.6297 8.76628L17.8463 8.71551L17.2691 8.18425C16.7141 7.67339 16.6918 7.66109 16.6918 7.86453ZM13.4833 11.4561C13.6934 11.498 13.9068 11.5563 13.9574 11.5854C14.0895 11.6616 13.4037 13.4946 13.256 13.4606C13.197 13.447 12.9351 13.3851 12.6738 13.3228C12.109 13.1886 11.4894 13.2359 11.1994 13.4355C11.0892 13.5112 10.9666 13.6924 10.9267 13.8382C10.8328 14.1818 10.9663 14.3748 11.6171 14.8363C12.4804 15.4484 12.7843 15.7454 13.0392 16.2258C13.2544 16.6315 13.2874 16.7715 13.2848 17.269C13.2794 18.2874 12.8136 19.1073 11.9996 19.5317C11.632 19.7233 11.463 19.7618 10.8771 19.7878C9.87915 19.8321 9.06553 19.5872 8.34689 19.0261L8.10911 18.8404L8.33989 18.1269C8.46692 17.7345 8.57081 17.4006 8.57081 17.385C8.57081 17.3693 8.73763 17.4629 8.94152 17.5931C9.38163 17.874 9.99616 18.1023 10.3126 18.1023C10.8054 18.1023 11.181 17.5373 10.958 17.1313C10.9054 17.0356 10.5126 16.6415 10.085 16.2555C9.14305 15.405 9.00098 15.1138 9.07025 14.1756C9.1692 12.8362 10.1166 11.8234 11.5782 11.4947C12.1327 11.3701 12.9672 11.3531 13.4833 11.4561Z" fill="white"/>
</svg>
