<svg width="260" height="145" viewBox="0 0 260 145" fill="none" xmlns="http://www.w3.org/2000/svg">
<path fill-rule="evenodd" clip-rule="evenodd" d="M9.27863 1.18796C10.859 -0.395984 13.4212 -0.395986 15.0015 1.18796L23.0949 9.29984C24.6752 10.8838 24.6752 13.4518 23.0949 15.0358C21.5145 16.6197 18.9524 16.6197 17.372 15.0358L16.1868 13.8478V23.3217C16.1868 34.9083 16.1954 43.1902 17.0396 49.484C17.8682 55.6612 19.4344 59.3126 22.1131 61.9972C24.7916 64.682 28.4346 66.2517 34.5977 67.0823C40.8772 67.9284 49.1402 67.9371 60.7004 67.9371H255.953C258.188 67.9371 260 69.753 260 71.993C260 72.1647 259.989 72.3339 259.969 72.5C259.989 72.6661 260 72.8353 260 73.007C260 75.247 258.188 77.0629 255.953 77.0629H60.7004C49.1402 77.0629 40.8772 77.0716 34.5977 77.9177C28.4346 78.7482 24.7916 80.318 22.1129 83.0027C19.4344 85.6874 17.8682 89.3388 17.0396 95.5159C16.1954 101.81 16.1868 110.091 16.1868 121.678V131.152L17.372 129.965C18.9524 128.38 21.5145 128.38 23.0949 129.965C24.6752 131.548 24.6752 134.116 23.0949 135.7L15.0015 143.812C14.2426 144.573 13.2133 145 12.1401 145C11.0668 145 10.0375 144.573 9.27861 143.812L1.18525 135.7C-0.395085 134.116 -0.395081 131.548 1.18526 129.965C2.76559 128.38 5.32781 128.38 6.90814 129.965L8.09337 131.152L8.09336 121.37C8.09329 110.159 8.09323 101.332 9.0184 94.4351C9.96766 87.3583 11.9572 81.7098 16.3901 77.2667C18.4609 75.1911 20.7942 73.6501 23.4126 72.5C20.7942 71.3499 18.4609 69.8088 16.3901 67.7333C11.9572 63.2902 9.96766 57.6417 9.0184 50.5649C8.09324 43.6679 8.0933 34.8405 8.09337 23.6296L8.09338 13.8479L6.90815 15.0358C5.32781 16.6197 2.76559 16.6197 1.18527 15.0358C-0.395072 13.4518 -0.395073 10.8838 1.18526 9.29984L9.27863 1.18796Z" fill="#F6C626"/>
</svg>
