<svg width="260" height="145" viewBox="0 0 260 145" fill="none" xmlns="http://www.w3.org/2000/svg">
<path fill-rule="evenodd" clip-rule="evenodd" d="M250.721 143.812C249.141 145.396 246.579 145.396 244.999 143.812L236.905 135.7C235.325 134.116 235.325 131.548 236.905 129.964C238.485 128.38 241.048 128.38 242.628 129.964L243.813 131.152L243.813 121.678C243.813 110.092 243.805 101.81 242.96 95.516C242.132 89.3388 240.566 85.6874 237.887 83.0028C235.208 80.318 231.565 78.7483 225.402 77.9177C219.123 77.0716 210.86 77.0629 199.3 77.0629L4.04671 77.0629C1.81193 77.0629 6.098e-06 75.247 6.29383e-06 73.007C6.30884e-06 72.8353 0.0111452 72.6661 0.0313784 72.5C0.0111453 72.3339 6.36747e-06 72.1647 6.38247e-06 71.993C6.5783e-06 69.753 1.81193 67.937 4.04671 67.937L199.3 67.9371C210.86 67.9371 219.123 67.9284 225.402 67.0823C231.565 66.2518 235.208 64.682 237.887 61.9973C240.566 59.3126 242.132 55.6612 242.96 49.4841C243.805 43.1897 243.813 34.9085 243.813 23.3217L243.813 13.848L242.628 15.0354C241.048 16.6203 238.485 16.6203 236.905 15.0354C235.325 13.4515 235.325 10.8841 236.905 9.30028L244.999 1.18838C245.757 0.426894 246.787 -1.15514e-06 247.86 -1.06132e-06C248.933 -9.6749e-07 249.962 0.426894 250.721 1.18838L258.815 9.30028C260.395 10.8841 260.395 13.4515 258.815 15.0354C257.234 16.6203 254.672 16.6203 253.092 15.0354L251.907 13.848L251.907 23.6299C251.907 34.8406 251.907 43.668 250.982 50.5649C250.032 57.6417 248.043 63.2902 243.61 67.7333C241.539 69.8089 239.206 71.3499 236.587 72.5C239.206 73.6501 241.539 75.1912 243.61 77.2667C248.043 81.7098 250.032 87.3583 250.982 94.4351C251.907 101.332 251.907 110.16 251.907 121.37L251.907 131.152L253.092 129.964C254.672 128.38 257.234 128.38 258.815 129.964C260.395 131.548 260.395 134.116 258.815 135.7L250.721 143.812Z" fill="#F6C626"/>
</svg>
