<svg width="28" height="28" viewBox="0 0 28 28" fill="none" xmlns="http://www.w3.org/2000/svg">
<path d="M14 28C21.732 28 28 21.732 28 14C28 6.26801 21.732 0 14 0C6.26801 0 0 6.26801 0 14C0 21.732 6.26801 28 14 28Z" fill="#1DA1F2"/>
<path d="M10.6056 21.308C17.5111 21.308 21.2871 15.6853 21.2871 10.8096C21.2871 10.65 21.2838 10.491 21.2765 10.3327C22.0095 9.81188 22.6467 9.16191 23.1491 8.42205C22.4765 8.7159 21.7526 8.91375 20.9932 9.0029C21.7684 8.54614 22.3635 7.82351 22.6441 6.96202C21.9188 7.38465 21.1155 7.69184 20.2602 7.85763C19.5751 7.14043 18.5998 6.69189 17.5198 6.69189C15.4466 6.69189 13.7654 8.34431 13.7654 10.3812C13.7654 10.6708 13.7983 10.9524 13.8627 11.2226C10.7424 11.0683 7.97573 9.60004 6.1243 7.3674C5.80188 7.91267 5.61597 8.54614 5.61597 9.22197C5.61597 10.5022 6.27874 11.6323 7.28662 12.2934C6.67069 12.2747 6.09209 12.1085 5.58633 11.8319C5.58577 11.8474 5.58577 11.8625 5.58577 11.879C5.58577 13.666 6.87984 15.158 8.5977 15.4961C8.28225 15.5806 7.95031 15.6259 7.60775 15.6259C7.36621 15.6259 7.13089 15.6026 6.90216 15.5594C7.38014 17.0255 8.76606 18.0924 10.4092 18.1222C9.12432 19.1121 7.50562 19.7016 5.74643 19.7016C5.44378 19.7016 5.14478 19.6848 4.85091 19.6506C6.5124 20.6973 8.48533 21.308 10.6057 21.308" fill="white"/>
</svg>
